# xmcd
#
# Track frame offsets:
#	150
#	18160
#	32555
#	50240
#	63835
#	79875
#	101490
#	117080
#	134920
#	150000
#	167605
#	185750
#	209685
#	226185
#	237975
#	250720
#	268760
#	286205
#	302845
#	321495
#
# Disc length: 4444 seconds
#
# Revision: 1
# Processed by: cddbd v1.5.2PL0 Copyright (c) Steve Scherf et al.
# Submitted via: audiograbber 1.83.01
#
DISCID=18115a14
DTITLE=Carlitos "La Mona" Jimenez - 10 Años
DYEAR=1900
DGENRE=Cuarteto
TTITLE0=Quien Se Tomo Todo El Vino
TTITLE1=Agujita De Oro
TTITLE2=Amor Secreto
TTITLE3=Tu
TTITLE4=Oh Mami
TTITLE5=Amor De Compra Y Venta
TTITLE6=Mujer Cruel
TTITLE7=La Prision
TTITLE8=Tinta China
TTITLE9=Seguro Que Si
TTITLE10=Mujer Y Amante
TTITLE11=Ramito De Violetas
TTITLE12=De Punta A Punta
TTITLE13=La Flaca La Gasta
TTITLE14=Paloma Loca
TTITLE15=El Gato
TTITLE16=Soy Un Fana
TTITLE17=Mujer
TTITLE18=Me Mata
TTITLE19=La Pupera
EXTD=
EXTT0=
EXTT1=
EXTT2=
EXTT3=
EXTT4=
EXTT5=
EXTT6=
EXTT7=
EXTT8=
EXTT9=
EXTT10=
EXTT11=
EXTT12=
EXTT13=
EXTT14=
EXTT15=
EXTT16=
EXTT17=
EXTT18=
EXTT19=
PLAYORDER=
